:FULLY-SPECIFIED
:FORCE-ALL-JOINTS-BE-3DOF
:DEGREES
227
root 8.81838 16.4598 -5.1709 8.60728 -2.17296 -3.08212
lfemur -42.8524 5.45027 -19.9252
ltibia 33.4579 0 0
lfoot -11.423 8.31737 0
ltoes -8.62416 0 0
rfemur 6.31113 3.06033 25.0026
rtibia 21.5355 0 0
rfoot -3.85423 4.74066 0
rtoes -12.3905 0 0
lowerback -6.24963 2.03755 0.724928
upperback -1.90374 2.60505 2.56603
thorax 1.45089 1.31508 2.42734
lowerneck -17.4712 -6.25351 -14.2072
upperneck 16.1766 -7.9084 14.8143
head 9.15886 -3.15938 6.44706
lclavicle 2.78282e-15 -1.29937e-15 0
lhumerus -47.5991 -7.40702 92.0496
lradius 23.6815 0 0
lwrist 0.733857 0 0
lhand -9.69523 -23.2555 0
lfingers 7.12502 0 0
lthumb 16.2761 6.06614 0
rclavicle 2.78282e-15 -1.29937e-15 0
rhumerus -41.3959 9.6327 -83.976
rradius 46.2755 0 0
rwrist -24.4324 0 0
rhand -31.1244 -25.7081 0
rfingers 7.12502 0 0
rthumb -4.40305 -55.6333 0
228
root 8.84524 16.4548 -5.00737 8.66503 -2.35703 -3.01801
lfemur -42.8785 5.65552 -20.1247
ltibia 33.8899 0 0
lfoot -11.2559 8.16723 0
ltoes -8.22627 0 0
rfemur 6.50576 2.97583 24.7402
rtibia 21.9985 0 0
rfoot -3.18341 4.74777 0
rtoes -12.5397 0 0
lowerback -6.25641 2.03836 0.654882
upperback -1.96203 2.61249 2.52507
thorax 1.39313 1.31916 2.42357
lowerneck -17.5213 -6.23342 -14.1945
upperneck 16.2416 -7.88183 14.8029
head 9.18461 -3.14504 6.44638
lclavicle 1.67057e-15 -1.5127e-15 0
lhumerus -47.5071 -7.27482 91.8585
lradius 23.4952 0 0
lwrist 0.33206 0 0
lhand -9.57855 -23.2212 0
lfingers 7.12502 0 0
lthumb 16.3884 6.09124 0
rclavicle 1.67057e-15 -1.5127e-15 0
rhumerus -41.6665 9.56324 -84.1172
rradius 45.9898 0 0
rwrist -24.3073 0 0
rhand -31.0258 -25.549 0
rfingers 7.12502 0 0
rthumb -4.30781 -55.4762 0
229
root 8.8721 16.4497 -4.84384 8.72279 -2.5411 -2.9539
lfemur -42.9046 5.86078 -20.3242
ltibia 34.322 0 0
lfoot -11.0888 8.01709 0
ltoes -7.82838 0 0
rfemur 6.70039 2.89132 24.4777
rtibia 22.4614 0 0
rfoot -2.51259 4.75489 0
rtoes -12.689 0 0
lowerback -6.2632 2.03917 0.584836
upperback -2.02033 2.61994 2.48412
thorax 1.33537 1.32325 2.41979
lowerneck -17.5714 -6.21332 -14.1818
upperneck 16.3066 -7.85527 14.7914
head 9.21037 -3.13069 6.4457
lclavicle 5.5831e-16 -1.72603e-15 0
lhumerus -47.415 -7.14262 91.6674
lradius 23.309 0 0
lwrist -0.0697359 0 0
lhand -9.46188 -23.1869 0
lfingers 7.12502 0 0
lthumb 16.5008 6.11635 0
rclavicle 5.5831e-16 -1.72603e-15 0
rhumerus -41.9372 9.49378 -84.2584
rradius 45.7041 0 0
rwrist -24.1822 0 0
rhand -30.9271 -25.3899 0
rfingers 7.12502 0 0
rthumb -4.21258 -55.3191 0
230
root 8.89896 16.4446 -4.68032 8.78054 -2.72518 -2.88979
lfemur -42.9306 6.06603 -20.5236
ltibia 34.7541 0 0
lfoot -10.9217 7.86695 0
ltoes -7.43049 0 0
rfemur 6.89501 2.80682 24.2153
rtibia 22.9244 0 0
rfoot -1.84177 4.76201 0
rtoes -12.8382 0 0
lowerback -6.26998 2.03999 0.51479
upperback -2.07863 2.62738 2.44316
thorax 1.27761 1.32733 2.41602
lowerneck -17.6215 -6.19323 -14.1691
upperneck 16.3717 -7.8287 14.78
head 9.23612 -3.11635 6.44501
lclavicle -5.53946e-16 -1.93936e-15 0
lhumerus -47.323 -7.01042 91.4762
lradius 23.1227 0 0
lwrist -0.471532 0 0
lhand -9.3452 -23.1526 0
lfingers 7.12502 0 0
lthumb 16.6131 6.14146 0
rclavicle -5.53946e-16 -1.93936e-15 0
rhumerus -42.2078 9.42432 -84.3996
rradius 45.4184 0 0
rwrist -24.057 0 0
rhand -30.8285 -25.2308 0
rfingers 7.12502 0 0
rthumb -4.11734 -55.162 0
231
root 8.92582 16.4396 -4.51679 8.8383 -2.90925 -2.82568
lfemur -42.9567 6.27128 -20.7231
ltibia 35.1861 0 0
lfoot -10.7547 7.71681 0
ltoes -7.03261 0 0
rfemur 7.08964 2.72232 23.9529
rtibia 23.3873 0 0
rfoot -1.17095 4.76912 0
rtoes -12.9874 0 0
lowerback -6.27676 2.0408 0.444743
upperback -2.13692 2.63482 2.40221
thorax 1.21985 1.33141 2.41224
lowerneck -17.6717 -6.17313 -14.1564
upperneck 16.4367 -7.80214 14.7685
head 9.26187 -3.10201 6.44433
lclavicle -1.6662e-15 -2.15269e-15 0
lhumerus -47.2309 -6.87822 91.2851
lradius 22.9365 0 0
lwrist -0.873329 0 0
lhand -9.22853 -23.1183 0
lfingers 7.12502 0 0
lthumb 16.7254 6.16656 0
rclavicle -1.6662e-15 -2.15269e-15 0
rhumerus -42.4785 9.35486 -84.5408
rradius 45.1327 0 0
rwrist -23.9319 0 0
rhand -30.7299 -25.0717 0
rfingers 7.12502 0 0
rthumb -4.0221 -55.0049 0
232
root 8.95268 16.4345 -4.35326 8.89605 -3.09333 -2.76157
lfemur -42.9828 6.47654 -20.9226
ltibia 35.6182 0 0
lfoot -10.5876 7.56667 0
ltoes -6.63472 0 0
rfemur 7.28427 2.63781 23.6905
rtibia 23.8502 0 0
rfoot -0.500137 4.77624 0
rtoes -13.1367 0 0
lowerback -6.28355 2.04161 0.374697
upperback -2.19522 2.64227 2.36125
thorax 1.16209 1.3355 2.40846
lowerneck -17.7218 -6.15304 -14.1436
upperneck 16.5017 -7.77557 14.7571
head 9.28763 -3.08766 6.44365
lclavicle -2.77846e-15 -2.36602e-15 0
lhumerus -47.1388 -6.74603 91.0939
lradius 22.7503 0 0
lwrist -1.27512 0 0
lhand -9.11185 -23.084 0
lfingers 7.12502 0 0
lthumb 16.8378 6.19167 0
rclavicle -2.77846e-15 -2.36602e-15 0
rhumerus -42.7491 9.2854 -84.682
rradius 44.8469 0 0
rwrist -23.8067 0 0
rhand -30.6312 -24.9126 0
rfingers 7.12502 0 0
rthumb -3.92687 -54.8478 0
233
root 8.97954 16.4295 -4.18974 8.95381 -3.2774 -2.69746
lfemur -43.0089 6.68179 -21.1221
ltibia 36.0503 0 0
lfoot -10.4205 7.41653 0
ltoes -6.23683 0 0
rfemur 7.4789 2.55331 23.428
rtibia 24.3132 0 0
rfoot 0.170681 4.78336 0
rtoes -13.2859 0 0
lowerback -6.29033 2.04242 0.304651
upperback -2.25352 2.64971 2.3203
thorax 1.10433 1.33958 2.40469
lowerneck -17.7719 -6.13294 -14.1309
upperneck 16.5667 -7.74901 14.7456
head 9.31338 -3.07332 6.44297
lclavicle -3.89071e-15 -2.57935e-15 0
lhumerus -47.0468 -6.61383 90.9028
lradius 22.564 0 0
lwrist -1.67692 0 0
lhand -8.99518 -23.0498 0
lfingers 7.12502 0 0
lthumb 16.9501 6.21678 0
rclavicle -3.89071e-15 -2.57935e-15 0
rhumerus -43.0198 9.21593 -84.8232
rradius 44.5612 0 0
rwrist -23.6816 0 0
rhand -30.5326 -24.7535 0
rfingers 7.12502 0 0
rthumb -3.83163 -54.6907 0
234
root 9.0064 16.4244 -4.02621 9.01156 -3.46147 -2.63335
lfemur -43.035 6.88704 -21.3216
ltibia 36.4823 0 0
lfoot -10.2535 7.26639 0
ltoes -5.83894 0 0
rfemur 7.67353 2.4688 23.1656
rtibia 24.7761 0 0
rfoot 0.841499 4.79047 0
rtoes -13.4351 0 0
lowerback -6.29711 2.04323 0.234604
upperback -2.31181 2.65715 2.27934
thorax 1.04656 1.34366 2.40091
lowerneck -17.8221 -6.11285 -14.1182
upperneck 16.6317 -7.72244 14.7342
head 9.33913 -3.05898 6.44229
lclavicle -5.00297e-15 -2.79268e-15 0
lhumerus -46.9547 -6.48163 90.7117
lradius 22.3778 0 0
lwrist -2.07872 0 0
lhand -8.8785 -23.0155 0
lfingers 7.12502 0 0
lthumb 17.0625 6.24188 0
rclavicle -5.00297e-15 -2.79268e-15 0
rhumerus -43.2904 9.14647 -84.9644
rradius 44.2755 0 0
rwrist -23.5565 0 0
rhand -30.434 -24.5944 0
rfingers 7.12502 0 0
rthumb -3.7364 -54.5336 0
235
root 9.03327 16.4193 -3.86268 9.06932 -3.64555 -2.56924
lfemur -43.061 7.09229 -21.5211
ltibia 36.9144 0 0
lfoot -10.0864 7.11625 0
ltoes -5.44106 0 0
rfemur 7.86816 2.3843 22.9032
rtibia 25.2391 0 0
rfoot 1.51232 4.79759 0
rtoes -13.5843 0 0
lowerback -6.30389 2.04404 0.164558
upperback -2.37011 2.66459 2.23838
thorax 0.988803 1.34774 2.39714
lowerneck -17.8722 -6.09275 -14.1055
upperneck 16.6968 -7.69587 14.7227
head 9.36488 -3.04464 6.4416
lclavicle -6.11523e-15 -3.00601e-15 0
lhumerus -46.8627 -6.34943 90.5205
lradius 22.1915 0 0
lwrist -2.48051 0 0
lhand -8.76183 -22.9812 0
lfingers 7.12502 0 0
lthumb 17.1748 6.26699 0
rclavicle -6.11523e-15 -3.00601e-15 0
rhumerus -43.561 9.07701 -85.1056
rradius 43.9898 0 0
rwrist -23.4313 0 0
rhand -30.3354 -24.4353 0
rfingers 7.12502 0 0
rthumb -3.64116 -54.3765 0
236
root 9.06013 16.4143 -3.69916 9.12707 -3.82962 -2.50513
lfemur -43.0871 7.29755 -21.7206
ltibia 37.3465 0 0
lfoot -9.91934 6.96611 0
ltoes -5.04317 0 0
rfemur 8.06279 2.2998 22.6408
rtibia 25.702 0 0
rfoot 2.18313 4.80471 0
rtoes -13.7336 0 0
lowerback -6.31068 2.04485 0.094512
upperback -2.42841 2.67204 2.19743
thorax 0.931041 1.35183 2.39336
lowerneck -17.9223 -6.07266 -14.0928
upperneck 16.7618 -7.66931 14.7113
head 9.39064 -3.03029 6.44092
lclavicle -7.22748e-15 -3.21934e-15 0
lhumerus -46.7706 -6.21723 90.3294
lradius 22.0053 0 0
lwrist -2.88231 0 0
lhand -8.64515 -22.9469 0
lfingers 7.12502 0 0
lthumb 17.2871 6.2921 0
rclavicle -7.22748e-15 -3.21934e-15 0
rhumerus -43.8317 9.00755 -85.2468
rradius 43.704 0 0
rwrist -23.3062 0 0
rhand -30.2367 -24.2762 0
rfingers 7.12502 0 0
rthumb -3.54592 -54.2194 0
237
root 9.08699 16.4092 -3.53563 9.18483 -4.01369 -2.44102
lfemur -43.1132 7.5028 -21.92
ltibia 37.7785 0 0
lfoot -9.75227 6.81598 0
ltoes -4.64528 0 0
rfemur 8.25741 2.21529 22.3783
rtibia 26.165 0 0
rfoot 2.85395 4.81182 0
rtoes -13.8828 0 0
lowerback -6.31746 2.04567 0.0244657
upperback -2.4867 2.67948 2.15647
thorax 0.87328 1.35591 2.38959
lowerneck -17.9724 -6.05256 -14.0801
upperneck 16.8268 -7.64274 14.6998
head 9.41639 -3.01595 6.44024
lclavicle -8.33974e-15 -3.43267e-15 0
lhumerus -46.6786 -6.08503 90.1383
lradius 21.819 0 0
lwrist -3.28411 0 0
lhand -8.52848 -22.9126 0
lfingers 7.12502 0 0
lthumb 17.3995 6.3172 0
rclavicle -8.33974e-15 -3.43267e-15 0
rhumerus -44.1023 8.93809 -85.388
rradius 43.4183 0 0
rwrist -23.1811 0 0
rhand -30.1381 -24.1171 0
rfingers 7.12502 0 0
rthumb -3.45069 -54.0622 0
238
root 9.11385 16.4041 -3.3721 9.24258 -4.19777 -2.37691
lfemur -43.1393 7.70805 -22.1195
ltibia 38.2106 0 0
lfoot -9.5852 6.66584 0
ltoes -4.24739 0 0
rfemur 8.45204 2.13079 22.1159
rtibia 26.6279 0 0
rfoot 3.52477 4.81894 0
rtoes -14.032 0 0
lowerback -6.32424 2.04648 -0.0455806
upperback -2.545 2.68692 2.11552
thorax 0.815519 1.35999 2.38581
lowerneck -18.0226 -6.03247 -14.0674
upperneck 16.8918 -7.61618 14.6884
head 9.44214 -3.00161 6.43956
lclavicle -9.452e-15 -3.646e-15 0
lhumerus -46.5865 -5.95283 89.9471
lradius 21.6328 0 0
lwrist -3.6859 0 0
lhand -8.4118 -22.8783 0
lfingers 7.12502 0 0
lthumb 17.5118 6.34231 0
rclavicle -9.452e-15 -3.646e-15 0
rhumerus -44.373 8.86863 -85.5292
rradius 43.1326 0 0
rwrist -23.0559 0 0
rhand -30.0395 -23.958 0
rfingers 7.12502 0 0
rthumb -3.35545 -53.9051 0
239
root 9.14071 16.3991 -3.20857 9.30034 -4.38184 -2.3128
lfemur -43.1654 7.91331 -22.319
ltibia 38.6427 0 0
lfoot -9.41813 6.5157 0
ltoes -3.8495 0 0
rfemur 8.64667 2.04628 21.8535
rtibia 27.0908 0 0
rfoot 4.19559 4.82606 0
rtoes -14.1813 0 0
lowerback -6.33103 2.04729 -0.115627
upperback -2.6033 2.69437 2.07456
thorax 0.757757 1.36408 2.38203
lowerneck -18.0727 -6.01237 -14.0547
upperneck 16.9568 -7.58961 14.6769
head 9.4679 -2.98726 6.43888
lclavicle -1.05643e-14 -3.85933e-15 0
lhumerus -46.4944 -5.82063 89.756
lradius 21.4466 0 0
lwrist -4.0877 0 0
lhand -8.29513 -22.8441 0
lfingers 7.12502 0 0
lthumb 17.6242 6.36742 0
rclavicle -1.05643e-14 -3.85933e-15 0
rhumerus -44.6436 8.79916 -85.6704
rradius 42.8469 0 0
rwrist -22.9308 0 0
rhand -29.9408 -23.7989 0
rfingers 7.12502 0 0
rthumb -3.26022 -53.748 0
